<svg aria-hidden="true" style="position:absolute;width:0;height:0;overflow:hidden" xmlns="http://www.w3.org/2000/svg">
  <defs>
    <symbol id="icon-youtube" viewBox="0 0 32 32">
      <path d="m13.074 20.012 6.643-3.84-6.643-3.84v7.68zM27.87 9.989c.166.602.282 1.408.358 2.432.09 1.024.128 1.907.128 2.675l.077 1.075c0 2.803-.205 4.864-.563 6.182-.32 1.152-1.062 1.894-2.214 2.214-.602.166-1.702.282-3.392.358-1.664.09-3.187.128-4.595.128l-2.035.077c-5.363 0-8.704-.205-10.022-.563-1.152-.32-1.894-1.062-2.214-2.214-.166-.602-.282-1.408-.358-2.432a30.635 30.635 0 0 1-.128-2.675l-.077-1.075c0-2.803.205-4.864.563-6.182.32-1.152 1.062-1.894 2.214-2.214.602-.166 1.702-.282 3.392-.358a84.893 84.893 0 0 1 4.595-.128l2.035-.077c5.363 0 8.704.205 10.022.563 1.152.32 1.894 1.062 2.214 2.214z"/>
    </symbol>
    <symbol id="icon-linkedin" viewBox="0 0 32 32">
      <path d="M24.594 4.652a2.56 2.56 0 0 1 2.56 2.56v17.92a2.56 2.56 0 0 1-2.56 2.56H6.674a2.56 2.56 0 0 1-2.56-2.56V7.212a2.56 2.56 0 0 1 2.56-2.56h17.92zm-.64 19.84v-6.784a4.176 4.176 0 0 0-4.173-4.173c-1.088 0-2.355.666-2.97 1.664v-1.421H13.24v10.714h3.571v-6.31c0-.986.794-1.792 1.779-1.792a1.792 1.792 0 0 1 1.792 1.792v6.31h3.571zM9.08 11.769a2.155 2.155 0 0 0 2.151-2.151c0-1.19-.96-2.163-2.15-2.163a2.163 2.163 0 0 0-2.164 2.164c0 1.19.973 2.15 2.163 2.15zm1.779 12.723V13.778H7.313v10.714h3.546z"/>
    </symbol>
    <symbol id="icon-facebook" viewBox="0 0 32 32">
      <path d="M28.434 16.172c0-7.066-5.734-12.8-12.8-12.8s-12.8 5.734-12.8 12.8c0 6.195 4.403 11.354 10.24 12.544v-8.704h-2.56v-3.84h2.56v-3.2c0-2.47 2.01-4.48 4.48-4.48h3.2v3.84h-2.56c-.704 0-1.28.576-1.28 1.28v2.56h3.84v3.84h-3.84v8.896c6.464-.64 11.52-6.093 11.52-12.736z"/>
    </symbol>
    <symbol id="icon-instagram" viewBox="0 0 32 32">
      <path d="M16.949 3.372c1.44.004 2.171.012 2.802.029l.248.009c.287.01.57.023.911.038 1.362.064 2.291.279 3.107.595a6.232 6.232 0 0 1 2.268 1.476 6.293 6.293 0 0 1 1.476 2.268c.316.815.531 1.745.595 3.108.015.34.028.623.038.911l.008.248c.019.63.027 1.361.029 2.801l.001.955v1.677c.003.934-.007 1.867-.029 2.801l-.008.248c-.01.288-.023.571-.038.911-.064 1.363-.282 2.291-.596 3.108a6.237 6.237 0 0 1-1.476 2.268 6.293 6.293 0 0 1-2.268 1.476c-.815.316-1.745.531-3.107.595-.304.014-.608.027-.911.038l-.248.008c-.631.018-1.362.027-2.802.029l-2.63.001c-.934.003-1.868-.007-2.802-.029l-.248-.008a91.147 91.147 0 0 1-.911-.04c-1.362-.064-2.291-.279-3.108-.595a6.267 6.267 0 0 1-2.267-1.476 6.282 6.282 0 0 1-1.477-2.268c-.316-.815-.531-1.745-.595-3.108a93.758 93.758 0 0 1-.038-.911l-.006-.248c-.024-.933-.034-1.867-.032-2.801v-2.632c-.004-.934.006-1.867.028-2.801l.009-.248c.01-.288.023-.571.038-.911.064-1.363.279-2.291.595-3.108a6.247 6.247 0 0 1 1.48-2.268 6.263 6.263 0 0 1 2.266-1.476c.817-.316 1.745-.531 3.108-.595.34-.015.625-.028.911-.038l.248-.008a96.843 96.843 0 0 1 2.801-.029l2.632-.001zm-1.316 6.4a6.4 6.4 0 1 0-.002 12.8 6.4 6.4 0 0 0 .003-12.8zm0 2.56a3.843 3.843 0 0 1 3.548 2.37 3.843 3.843 0 0 1-3.546 5.311 3.84 3.84 0 0 1 0-7.68zm6.721-4.48a1.6 1.6 0 1 0 .002 3.2 1.6 1.6 0 0 0-.002-3.2z"/>
    </symbol>
    <symbol id="icon-user" viewBox="0 0 28 32">
      <path d="M14.222 15.388c2.063 0 4.041-.796 5.5-2.213S22 9.836 22 7.832s-.819-3.926-2.278-5.343-3.437-2.213-5.5-2.213-4.041.796-5.5 2.213-2.278 3.339-2.278 5.343.819 3.926 2.278 5.343 3.437 2.213 5.5 2.213zm-9.444 2.159c-1.031 0-2.021.398-2.75 1.107S.889 20.323.889 21.325v.54c0 2.583 1.692 4.767 4.094 6.253 2.416 1.494 5.686 2.382 9.239 2.382s6.822-.888 9.239-2.382c2.402-1.485 4.094-3.67 4.094-6.253v-.54c0-1.002-.41-1.963-1.139-2.671s-1.718-1.107-2.75-1.107H4.777z"/>
    </symbol>
  </defs>
</svg>
